<?xml version="1.0" encoding="UTF-8"?>
<svg version="1.1" viewBox="0 0 2000 2000" width="1280" height="1280" xmlns="http://www.w3.org/2000/svg">
<path transform="translate(682,512)" d="m0 0 8 3 16 11 10 8 16 8 28 13 16 6 14 4h10l19-3 23-2h14l20 2 24 6 20 8 17 9 12 8 10 9 16 16 7 8 6 7 8 13 3 3 12-18 9-10 10-11 17-17 15-10 23-11 21-7 22-4 21-1 27 2 27 4 9-2 21-7 20-9 24-11 14-10 10-8 12-7 5 2 4 4 1 7-1 32-4 25-5 17-8 20-7 11-3 5 13 28 5 15 5 24 2 18v14l-2 20-5 23-6 16-10 21-7 12-5 10v3l5 5 17 16 13 13 7 6 11 14 12 17 11 19 8 17 6 19 5 25 3 22v27l-4 28-6 30-5 16-7 16-11 22-14 22-11 15-9 11-11 12-8 7-16 17-15 12-20 13-21 12-6 4-1 24 72 1 5 5v38l-6 2 5 3v19l-1 2h-27l-31-2-17-3-8-1-8-3v-3l-11-3-3-3 1-4-5 3-14 11-5 2h-9l-10-6-10-10-5-6-2-1-2 6-7 10-11 7-7 2-12-6-11-10-7-8-4 4-9 12-12 6-5 1-10-5-10-10-4-6h-37l-12 13-9 6-7 2-8-3-10-9-9-10-4 2-14 14-9 5h-9l-10-6-7-8-6-9h-2l-9 11-9 8-8 4h-7l-8-4-8-7-6-9-85 1-11 6-8 9-7 14-2 7v14l4 13 9 14 5 5 8 5 10 4 47 1h514l1 1 1 14 11 3 16 6 11 8 8 8 9 13 6 13 3 11 1 7v16l-4 16-4 10-7 12-8 9-11 9-16 8-12 3-23 2-5 1 3 1-2 6-2 3-14 2-26-4h-90l-21 2-5 1h-23l-7-1-6 2-9 1-1 2h-15l-6-2 1-3 3-2h4l1-4 3-3 4 4 8-2 1-2 9-1-19-1h-18l-10 4-8 7-1 3 2-1h8l5 3v2h-2v2l-6 4-6 15-1 5-2-1-1 6 5 8 10 7 6 2 8 1 243 1 1 1 1 10 19 1 61 2 36 2 36 3 16 4 7 4 1 5-7 3-36 4-42 6-31 3-58 3-73 2-46 2-34 1-122 1h-159l-51-1-50-2-123-5-21-2-31-4-31-5-20-2-9-3-1-4 5-5 13-4 17-2 38-3 75-3 40-1-9-12-7-14-3-11v-8l3-12 7-12 7-11h-18l-15-3-16-8-9-7-10-10-9-13-6-15-2-9v-21l4-16 8-16 9-12 10-9 10-6 16-5-2-4-9-10-9-13-6-13-4-16-1-9v-9l3-18 6-16 8-14 11-12 9-7 12-7 13-5 6-1 55-1v-25l-8-5-14-8-18-12-12-9-10-9-21-21-7-6-9-11-11-14-11-17-12-21-12-24-6-19-6-29-4-28v-31l3-22 5-25 6-20 14-29 11-16 9-12 11-12 12-12 8-7 16-16 1-3-8-16-13-25-6-15-5-21-2-13-1-25 3-26 5-21 6-16 11-22 1-4-9-13-7-15-5-15-5-24-1-9v-40zm153 96-21 4-19 7-19 10-11 9-10 10-10 13-10 19-6 17-3 15-1 10v11l2 19 6 20 8 16 12 16 9 10 7 7 17 12 15 8 17 5 11 2h34l17-4 16-6 16-9 10-8 10-9 9-10 10-14 5-8 5-18 3-14 1-10v-23l-3-18-6-21-6-11-7-11-12-13-10-9-11-7-21-9-18-6-13-2zm304 0-20 4-19 7-21 10-14 12-10 11-10 15-6 16-5 18-3 19v15l3 19 7 25 6 12 8 10 9 11 12 11 15 10 19 8 8 2h32l13-3 18-6 22-13 12-11 8-8 9-11 6-9 7-14 5-15 3-14 1-9v-31l-2-15 3-7 1-4-4-10-8-12-10-11-11-9-10-6-19-9-16-5-20-3zm-156 185-8 5-4 6-1 8 6 12 10 14 7 11 4 5 3-1 11-15 7-11 6-9-1-5-9-10-6-5-10-4-4-1zm-22 57-7 8-7 7-11 7-24 12-10 6-2 4-4 2-14 8-14 5-24 4-22 1-1 3 3 32 1 18 2 55 3 24 6 26 4 14 4-2 2-4 4-3 5 2 7 9 6 8 7 7 10 4 3 1h19l13-4 10-7 6-7 6-11 4-1 6 3 2 3 3 12 4 8 7 7 14 7 8 2h20l13-4 11-8 6-7 4-11 2-9 5-3 5 1 12 16 8 7 11 5 4 1h20l12-4 7-6 7-9 6-10 3-2 6 3h2v2h2l1 3 2-1 8-31 2-16 2-43 1-39 3-43-3-3-34-4-13-4-15-6-12-6-25-11-17-9-9-7-6-5-5-6h-4l-6 8-13 16-10 11-3 4-4-1-13-16-10-11-8-10zm-298 74-6 9-8 21-5 16-4 19-2 18v32l4 27 6 24 8 23 8 15 14 22 11 14 21 21h2l-2-7-11-19-13-24-8-15-9-23-7-24-4-18-3-25v-16l2-23 5-26 7-20 5-13v-5l-4-3zm674 23-4 3 1 9 5 17 3 16 1 9v37l-3 23-6 25-9 27-9 19-12 22-10 17-6 11 1 4 15-15 9-11 11-15 15-25 8-19 6-19 4-16 3-18 1-12v-26l-2-19-4-20-4-12-5-9-3-3zm-284 165-7 12-9 11-14 8-7 3-13 2h-11l-14-3-11-6-6-5-9-11-6-9-4 2-9 8-10 6-10 4-7 1-22 1 2 5 5 10 13 12 15 10 16 9 21 7 22 4 13 1h28l24-5 12-4 19-9 17-10 18-14 5-8 2-7-1-1h-19l-14-3-13-7-10-9-4-5zm-201 118-13 4-11 7-7 8-4 8-2 10v41l3 6 6 6 7 2 9-3 4-5 2-10v-32l4-6 5-4 2-1h10l6 4 4 7 1 6 1 32 3 6 5 4 3 1h8l6-3 4-6 1-4v-30l2-8 4-5 7-4h7l7 3 5 5 2 5 1 36 4 6 3 3 9 1 6-3 5-10v-30l-2-15-4-10-7-10-7-6-12-5-6-1h-13l-11 3-14 7-1 2-5-1-14-8-9-3zm211 0-11 2-8 4-9 8-7 9-4 12-1 9v32l3 8 7 6 9 1 5-3 4-7 1-4v-19l1-15 3-6 6-5 2-1h8l8 3 4 5 2 4 1 35 3 7 6 5 3 1h8l6-4 3-5 1-4 1-33 5-9 5-4 7-1 9 3 4 5 2 5 1 35 3 5 6 5 2 1h6l6-4 5-7 1-3v-29l-1-16-4-11-10-11-10-6-5-2-7-1-16 1-13 6-8 5-5-1-9-6-10-4-6-1zm129 115-2 2 5-1zm-501 144-9 7-11 10-5 10-2 7v14l5 12 8 10 10 6 7 3 9 1h584l12-3 10-6 4-5-1-2v-1l1-4v-18l-4-10-7-6-8-4-16-1-22-4-17-1-80 4-26 1h-143l-71-1-40-1-61-3-34-3-36-1-13-2h-18l-4 7-10 3-7 1h-18l-3-1 7-9 10-7 5-2v-1z" fill="#051420"/>
<path transform="translate(994,288)" d="m0 0h8l19 4 55 18 45 14 41 13 46 14 34 11 42 12 31 9 54 16 12 5 5 4 1 3v231l9 9 5 11 2 12 3 50 2 30v13l-6 5-8 3-7 1h-29l-13-4-6-5v-16l2-37 3-44 2-8 5-10 6-6h2l1-6 1-214-25 6-41 12-36 11-30 7-31 10h-3v64l-1 5h-10l-11-1h-48l-30 4-22 6-22 9-22 13-17 12-12 9h-3l-17-12-25-16-16-8-20-8-19-5-20-3-11-1h-42l-22 1-1-68-22-8-23-6-25-6-47-14-61-17-10-5-2-2 1-7 12-6 35-11 48-15 32-9 81-26 39-12 36-12 45-14 37-12zm-86 115-28 5-35 10-17 6-12 5-1 2 3 1 24 1 1 89h30l1-76 4-7 8-8 7-8 18-18v-2z" fill="#05141F"/>
<path transform="translate(778,882)" d="m0 0 22 8 22 4 7 1h34l37-6 3 1-5 5-10 7-14 6-11 3-19 3-22 1 3 34 1 18 2 55 3 24 6 26 3 11v3l9-9 3-1 7 6 8 12 8 8 10 4 3 1h19l13-4 10-7 6-8 6-10 4-1 6 3 3 4 3 12 4 8 9 8 11 5 8 2h20l13-4 11-8 5-6 4-11 2-9 6-4 5 1 6 7 6 9 8 7 11 5 4 1h20l12-4 6-5 7-9 6-10 4-3 8 4v2h2l2 2 8-31 2-16 2-43 1-39 3-43v-2l-36-4-13-4-15-6-6-3v-1h8l21 3h34l21-3 19-5 11-3v4l-5 20-5 36-2 18-1 16v52l5 44 4 22 7 24 11 30 12 27 8 15-1 4-13 12-11 8-10 9-8 7-2 3h-2l-8-11-11-10-17-8-14-4-8-1h-13l-14 3-13 5-6-1-13-5-10-2h-18l-14 3-18 7-11 8-7 7-10 15-2 4-3-4-8-12-9-10-10-7-13-6-13-4-6-1h-16l-16 3-13 5-9-3-11-4-5-1h-19l-17 4-15 6-10 7-10 10-4 6-5-5-14-12-13-10-12-12 1-7 7-12 8-18 13-35 8-28 4-19 4-32 2-26v-36l-2-25-4-33-5-22-5-17zm275 230-7 12-9 11-14 8-7 3-13 2h-11l-14-3-11-6-6-5-9-11-6-9-4 2-9 8-10 6-10 4-7 1-22 1 2 5 5 10 13 12 15 10 16 9 21 7 22 4 13 1h28l24-5 12-4 19-9 17-10 18-14 5-8 2-7-1-1h-19l-14-3-13-7-10-9-4-5z" fill="#C1AC9D"/>
<path transform="translate(661,1706)" d="m0 0h58l659 1 51 2 10 1-3 2-49 7-31 3-58 3-73 2-46 2-34 1-122 1h-159l-51-1-50-2-123-5-21-2-31-4-31-5 3-2 6-1 20-1z" fill="#C1AC9D"/>
<path transform="translate(789,1483)" d="m0 0h495l12 2 8 4 12 11 6 10 4 11v15l-4 10-6 9-5 2 1-3-2-1 2-5v-18l-4-10-8-6-6-3-16-1-22-4-17-1-80 4-26 1h-143l-71-1-40-1-61-3-34-3-36-1-13-2h-18l-3 6-9 3-9 2h-18l-4-2 7-9 11-8 3-1-5 1-8 6-7 5 2-4 5-5v-3l3-2 9-1 10-3z" fill="#C1AC9D"/>
<path transform="translate(948,968)" d="m0 0 6 1 3 3 5 13 10 11 10 5 7 2h18l13-4 9-5 7-9 3-5 4-11 4-1 5 3 10 17 8 8 11 5 7 2h13l15-4 8-5 8-13 5-9 3-3 5 1 6 5v10l-5 15-5 9-9 11-10 8-9 4-13 3h-11l-11-3-12-6-10-9-8-10-3-1-6 12-9 8-12 6-12 3h-16l-13-4-10-6-7-7-6-10-4-2-8 11-9 8-12 6-16 4h-9l-12-3-8-4-10-9-9-11-7-15-2-8v-9l3-5 4-2 5 1 6 9 7 12 5 5 8 4 7 2h18l11-3 10-6 7-9 6-14z" fill="#05141F"/>
<path transform="translate(850,1076)" d="m0 0 5 2 6 7 7 10 7 7 10 4 3 1h19l13-4 10-7 6-8 6-10 4-1 6 3 3 4 3 12 4 8 9 8 11 5 8 2h20l13-4 11-8 5-6 4-11 2-9 6-4 5 1 6 7 6 9 8 7 11 5 4 1h20l12-4 6-5 7-9 6-10 4-3 8 4v2h2v9l-5 14-8 12-5 6-15 10-7 3-11 1h-9l-14-3-13-7-10-9-4-4v-2l-3 3-5 9-9 11-11 7-11 5-13 2h-11l-14-3-11-6-7-6-9-11-5-7v-2l-8 7-13 9-12 5-7 1h-23l-12-6-11-8-7-9-7-14-3-9v-6l3-5z" fill="#05141F"/>
<path transform="translate(838,672)" d="m0 0h20l12 3 14 9 10 10 7 12 3 9 1 5v15l-4 14-6 11-10 11-14 9-9 3-7 1h-16l-12-3-13-7-11-11-7-11-4-11-1-7v-15l2-11 7-14 11-11 10-6 11-4zm-21 23-5 3-4 4-2 5 1 8 5 6 6 3h8l6-4 4-5v-10l-4-6-3-3-3-1z" fill="#051420"/>
<path transform="translate(1138,672)" d="m0 0h18l10 2 16 8 10 9 7 10 5 11 2 10v12l-3 12-6 12-7 9-10 8-13 6-7 2-8 1h-10l-11-2-10-5-10-8-9-10-8-16-2-10v-14l3-11 7-14 9-10 13-8 8-3zm-17 22-6 3-5 6-1 2v7l4 7 8 5h6l6-4 4-5 1-8-4-8-5-4z" fill="#051420"/>
<path transform="translate(1255,670)" d="m0 0 4 5 7 19 4 18 1 10v13l-3 21-5 16-5 12-11 16-13 15-10 9-14 10-15 7-18 5-14 2h-24l-14-2-4-1v-2l29-1 13-3 18-6 22-13 12-11 7-7 9-11 6-9 7-14 5-15 3-14 1-9v-31l-2-15 3-7z" fill="#C1AC9D"/>
<path transform="translate(731,1385)" d="m0 0h158l5 3 1 2v7l-5 5h-157l-6-4-2-3 1-4 3-5z" fill="#0A1823"/>
<path transform="translate(708,1525)" d="m0 0h156l6 3 1 2v9l-4 2h-161l-5-5 1-5 4-5z" fill="#05141F"/>
<path transform="translate(1111,1525)" d="m0 0h153l6 2 3 3 1 4-3 6-3 1h-159l-4-4v-6l4-5z" fill="#061520"/>
<path transform="translate(1189,1604)" d="m0 0h103v1l-16 1-5 1 3 1-2 6-2 3-14 2-26-4h-90l-21 2-5 1h-23l-7-1-6 2-9 1-1 2h-15l-6-2 1-3 3-2h4l1-4 3-3 4 4 8-2 1-2 9-1-19-1v-1z" fill="#C1AC9D"/>
<path transform="translate(1194,1343)" d="m0 0h96l4 2-5 1 5 3v19l-1 2h-27l-31-2-17-3-8-1-8-3v-3l-11-3-3-3 1-4-4 1 2-5zm-2 2-2 2 5-1z" fill="#C2AD9F"/>
<path transform="translate(669,1550)" d="m0 0h2l6 8 10 6 7 3 9 1h584l11-1v3h-2l-1 2-17 1h-570l-16-2-12-6-1-2-5-3-3-5-3-4z" fill="#010304"/>
<path transform="translate(1010,291)" d="m0 0h7l75 24 122 38 28 9 42 12 31 9 54 16 12 5 5 4 1 3-1 230h-2l-1-8v-224l-42-14-74-21-19-6-25-7-19-6-49-15-52-17-50-16-43-15z" fill="#06090A"/>
<path transform="translate(712,838)" d="m0 0h2l-1 4-16 17-25 25-1 2h-2l-2 4-14 18-9 15-8 15-7 20-3 15-3 18-2 15v43l1 11 2 10 2 11 1 3 5 21 7 16 4 8h2l2 6 8 15 5 10 4 6 5 8v3l3 1v2l5 5 1 3 5 5 3 5 2 1v3l3 1 4 5v2l4 2v2h2v2l4 2 8 7 4 4v2l6 3v2l4 2 9 7 5 4 5 3 7 5 3 1v2l5 2 13 7 1 2-6-1-14-8-18-12-12-9-10-9-21-21-7-6-9-11-11-14-11-17-12-21-12-24-6-19-6-29-4-28v-31l3-22 5-25 6-20 14-29 11-16 9-12 11-12 12-12 8-7 16-16z" fill="#06090B"/>
<path transform="translate(1187,1385)" d="m0 0h89l5 3 2 2v7l-6 5h-91l-6-7 1-4 4-5z" fill="#0A1823"/>
<path transform="translate(1282,838)" d="m0 0 6 3 7 8 10 9 15 15 7 6 11 14 12 17 11 19 8 17 6 19 5 25 3 22v27l-4 28-6 30-5 16-7 16-11 22-14 22-11 15-9 11-11 12-8 7-16 17-15 12-20 13-14 8v-3l5-4 18-11 6-4h2v-2l8-6 11-9 22-22 7-8 11-13 4-6 5-6 1-3h2l2-5 6-9 6-11 8-16 7-16 6-18 5-22 2-15 2-7 1-29-1-19-2-12-5-25-5-16-4-10-7-14v-3l-2-1-4-6v-3h-2l-3-5v-3h-2l-8-11-11-13-21-21-5-6v-2l-4-2-8-7-3-2z" fill="#080B0D"/>
<path transform="translate(1138,672)" d="m0 0h18l10 2 16 8 10 9 7 10 5 11 2 10v12l-3 12-6 12-7 9-10 8-13 6-7 2-8 1h-10l-11-2-10-5-10-8-9-10-8-16-2-10v-14l3-11 7-14 9-10 13-8 8-3zm2 3-11 2-10 5-8 6-8 10v2l-2 1-4 9-1 13v14l6 16 4 8 7 8 6 3 8 5 13 4h15l13-4 11-6 9-7 5-5v-3h2l6-12 2-9v-11l-6-16-6-11-4-4-1-3-3-3-3-1-2-2-6-4-3 1-1-2-10-3-12-1z" fill="#0A0C0E"/>
<path transform="translate(1362,430)" d="m0 0h1l1 13 1 80v101l-1 17-3 5-8 11-3 5-3 23-1 2-2 54-1 12-1 6h-2v-31l3-39 1-19 2-8 5-10 6-6h2l1-6 1-202z" fill="#030506"/>
<path transform="translate(1054,1637)" d="m0 0h60l5 3v9l-2 2-30 1h-22l-13-1-2-2v-8z" fill="#071521"/>
<path transform="translate(682,512)" d="m0 0 8 3 16 11 10 8 16 8 28 13 16 6 14 4 1 2-10-1-17-5-28-12-18-10-15-10-19-12-3-1v32l1 25 6 24 4 10 1 6 3 1 2 5v3h2l4 8v2h-2l-9-14-6-13-5-15-5-24-1-9v-40z" fill="#07090B"/>
<path transform="translate(948,968)" d="m0 0 6 1 3 3 5 13 10 11 10 5 7 2h18l13-4 9-5 4-3v3l-12 9-9 4-7 2-15-1-13-5-8-6-9-10-5-8-2-4-5 2-3 6-9 10-4 1 6-8 5-11 3-6zm97 0 6 2 12 19 7 7 11 5 7 2h13l9-2h4v2l-8 4-13 2-10-3-10-5-12-9-6-7-3-1-1-4-6-1-3 3-1 2h-2l-2 5-4 2 2-4 4-7 4-11z" fill="#06090B"/>
<path transform="translate(699,1568)" d="m0 0h498l44 1v1l-476 1-64-1z" fill="#3B4044"/>
<path transform="translate(1104,1385)" d="m0 0h34l5 3 3 6-3 6-2 2h-39l-5-6 1-6 4-4z" fill="#081621"/>
<path transform="translate(1245,1637)" d="m0 0h41l4 4v6l-3 5h-42l-3-1-1-2v-7z" fill="#04131E"/>
<path transform="translate(724,741)" d="m0 0 2 1 5 21 6 16 7 12 10 13 9 10 10 9 18 12 13 6 14 4 11 2h34l11-1v2l-13 3-11 1h-12l-15-2-22-6-12-6-11-7-14-11-8-7-6-7v-2l-4-2v-3h-2l-4-7-6-10-3-6-4-10-4-16z" fill="#0A0D0F"/>
<path transform="translate(838,672)" d="m0 0h20l12 3 14 9 10 10 7 12 3 9 1 5v15l-4 14-4 7-1-4 4-14 1-5-1-13-1-9-5-10-2-6h-2l-2-5-5-2-8-5-1-2-16-4h-26l-10 4-10 7-3 1-2 4-6 7-3 6-1 1-2 12-3 2v-9l5-13 6-8 8-8 10-6 11-4z" fill="#080B0C"/>
<path transform="translate(842,560)" d="m0 0h14l20 2 24 6 20 8 17 9 12 8 10 9 16 16 7 8 6 7 7 11-1 3v-2l-4-2-6-8-7-9-4-6-12-12-5-3-12-9-7-4v-2l-5-2-23-12-17-7-15-3-1-1h-24l-23-2v-1z" fill="#070A0C"/>
<path transform="translate(681,1456)" d="m0 0h5l-2 2-16 7-11 8-4 2-2 4-8 10-6 12-4 14-1 23 2 13 5 10 4 7 6 9 5 5 11 9 13 6 15 5v2l-9-1-13-5-14-9-12-12-9-13-6-15-2-9v-21l4-16 8-16 9-12 10-9 10-6z" fill="#080B0D"/>
<path transform="translate(820,1248)" d="m0 0 1 3-4 10-1 6v41l3 6 5 5 7 2 9-3 4-7 1-12v-27l4-6 6-5 2-1h10l6 4 3 4v2l-5-2-3-3h-8l-8 4-3 4v33l-2 8-4 6-4 3-3 1h-10l-6-3-6-7-2-4v-50l6-10h2z" fill="#080C0E"/>
<path transform="translate(1145,1076)" d="m0 0 7 3 2 1v2l-9 2-14 18-15 8-6 2h-17l-7-3-12-5-8-7-5-6v-2h-2l-2-5-7 2-8 16-7 9-5 2 4-6 5-6 4-11 2-9 6-4 5 1 6 7 6 9 8 7 11 5 4 1h20l12-4 6-5 7-9 6-10z" fill="#04080A"/>
<path transform="translate(712,838)" d="m0 0h2l-1 4-16 17-25 25-1 2h-2l-2 4-14 18-9 15-8 15-7 20-3 15-3 18-1 4-4 3 3-21 6-24 6-16 11-22 11-16 9-12 11-12 12-12 8-7 16-16z" fill="#0B0D0F"/>
<path transform="translate(655,1031)" d="m0 0 3 2v5l2 6 1 10 9 36 10 25 8 16 10 21 8 16 2 6-4-4-13-24-12-22-10-24-7-23-5-22-2-15z" fill="#090B0D"/>
<path transform="translate(1354,967)" d="m0 0h2v3l2 1 3 13 1 5 3 19v28l-2 16-2 10-3 14-5 16-5 14-2 4-3 1 3-10 6-19 4-16 3-18 1-12v-26l-2-19-4-20z" fill="#070A0C"/>
<path transform="translate(722,1301)" d="m0 0h37l16 1-3 2-18 1h-30l-10 2-19 9-10 8-8 8-10 15-5 14-4 17-3 1 2-16 6-16 8-14 11-12 9-7 12-7 13-5z" fill="#040709"/>
<path transform="translate(620,1688)" d="m0 0h32l-1 3-71 4-9 1-26 2-12 5-1 2h2v2h6l-2 2-9-1-2-5 5-5 13-4 17-2 38-3z" fill="#06090B"/>
<path transform="translate(1346,1688)" d="m0 0h30l36 2 36 3 16 4 7 4 1 5-3 2h-8l3-6v-2l-8-2-25-2-6-1-37-2-34-1-9-1-2-2z" fill="#070A0C"/>
<path transform="translate(731,1385)" d="m0 0h158v2l-2 1h-157z" fill="#060C10"/>
<path transform="translate(922,1260)" d="m0 0h7l7 3 5 4 3 7 1 36 1 4-5-5-2-9v-30l-3-4-3-1h-13l-4 5-4 1 1 23v15l-2 4-5 3 2-8v-30l2-8 5-6z" fill="#0A0D0F"/>
<path transform="translate(642,971)" d="m0 0h1v8l-3 18-1 10v32l4 27 6 24 8 23 2 5-4-2-7-17-3-9-6-22-4-23v-44l5-27z" fill="#090D10"/>
<path transform="translate(792,733)" d="m0 0h2l2 5-1 2 2 1 1 8 3 1 1 4 4 6 2 4 7 5v2l4 2 3 2 9 3 9 2 16-1 8-2 13-6 10-6 4-2-2 4-8 7-10 6-9 3-7 1h-16l-12-3-13-7-11-11-7-11-4-11z" fill="#080B0D"/>
<path transform="translate(1064,1260)" d="m0 0h8l8 3 5 6 2 4 1 35 3 7 5 4 3 1h12l-3 3-6 1-7-2-6-5-4-6-1-5-1-34-3-1-2-6-11-1-6 2-4 5-1 6-1 28-1 4h-2l-1-21 1-15 3-6 7-6z" fill="#07090B"/>
<path transform="translate(1024,1618)" d="m0 0 1 2 2-1h8l5 3v2h-2v2l-6 4-6 15-1 5-2-1-2 5-4-5-1-3v-15l6-11z" fill="#C1AC9D"/>
<path transform="translate(1130,1260)" d="m0 0 10 1 6 4 4 6 1 3 1 35 3 5 5 4 7 3v1h-7l-5-3-6-7-1-3v-39h-3v-2l-6-2-8-1-6 1-1 5-3 3-1 34-2 5-4 2 2-7 1-33 5-9 6-5z" fill="#070A0C"/>
<path transform="translate(855,969)" d="m0 0 5 1 6 9 7 12 5 5 8 4 7 2-1 2-8-1-8-5-5-5-8-9-4-9-3-1-3 1v19l10 15 3 4 2 4 2 2 1 2 4 1 2 2 1 2 6 2 11 4 1 2-9-1-10-4-12-11-8-10-7-15-2-8v-9l3-5z" fill="#0A0D0E"/>
<path transform="translate(973,293)" d="m0 0h5v2l-20 7-33 11-40 12-15 5-4-1 1-2 37-12 39-12z" fill="#080B0D"/>
<path transform="translate(806,474)" d="m0 0h1l1 12 1 48 1 2 63 1 3 2-49 1-22 1v-51z" fill="#030709"/>
<path transform="translate(627,402)" d="m0 0 3 1-3 3-6 3-1 4v2h2v2l10 2 16 5 35 10 15 5 1 3-16-4-57-16-10-5-2-2 1-7z" fill="#080B0D"/>
<path transform="translate(954,1007)" d="m0 0 4 2 1 4h2l2 3v3l4 2 11 6 15 5h9l18-6 12-7 7-6 1 3-7 8-10 6-12 4-5 1h-16l-13-4-10-6-7-7z" fill="#070A0C"/>
<path transform="translate(1242,1301)" d="m0 0h48l5 5v38h-5l1-4v-36h-41l-25-1v-1z" fill="#020405"/>
<path transform="translate(862,329)" d="m0 0 2 1-3 3-23 7-8 3-23 7-31 10-7 1 1-3 40-13z" fill="#070A0C"/>
<path transform="translate(1117,1641)" d="m0 0h1v9l-1 1-30 1h-22l-13-1-1-4h64z" fill="#111"/>
<path transform="translate(1304,1455)" d="m0 0 9 2 12 5 10 8 7 7 9 13 6 13 3 11v10l-2-2-5-19-8-16-8-10-3-2v-2l-4-2-13-8-13-7z" fill="#070A0C"/>
<path transform="translate(869,609)" d="m0 0 10 1 16 5 16 8 12 8 13 12 5 5v2l3 1 7 11v2h2l4 8-1 4-3-4-8-14-11-13-9-9-13-9-20-9-23-8z" fill="#0D1011"/>
<path transform="translate(669,1550)" d="m0 0h2l6 8 10 6 7 3 7 2 64 1v3h-57l-16-2-12-6-1-2-5-3-3-5-3-4z" fill="#040607"/>
<path transform="translate(1339,1058)" d="m0 0h1v8l-7 27-8 22-8 17-6 11-2-1 2-6 5-11 7-18 3-7 5-15 4-11 2-10z" fill="#0C0E10"/>
<path transform="translate(678,734)" d="m0 0h2l4 25 6 24 5 12 1 5 2 1 5 12 3 7-3-1-12-23-6-15-5-21-2-13z" fill="#05090B"/>
<path transform="translate(960,688)" d="m0 0 3 3 2 12 2 7 1 17v18l-2 5-2 16-6 14-2 3-2-1 5-15 4-19 1-10v-23l-3-18z" fill="#05080A"/>
<path transform="translate(1023,1263)" d="m0 0h1v43l3 8 6 5 9 1 8-4-1 4-7 4h-8l-5-3-7-8-2-5-1-9v-20l2-12z" fill="#05080A"/>
<path transform="translate(1244,1638)" d="m0 0 11 2-1 2-5 2-2 3 38 1h3l-1 4h-42l-3-1-1-2v-7z" fill="#05090C"/>
<path transform="translate(1125,607)" d="m0 0 8 1-1 2-19 5-17 7-17 8-14 12-9 10-3 3v-4l9-10 7-6 4-5 14-8 15-7 13-5z" fill="#06090B"/>
<path transform="translate(1134,1200)" d="m0 0h13l16 3 15 6 9 5 12 11 6 8-1 4-9-9-2-4-5-5-5-4-16-7-1-1-12-1-6-2h-10l-8-1z" fill="#01070A"/>
<path transform="translate(850,1076)" d="m0 0 5 2 6 7 7 10 7 7 10 4 3 1h25v2l-8 2h-17l-14-6-8-6-4-5-6-7v-2l-4-2v-2l-3-1z" fill="#070B0D"/>
<path transform="translate(701,1216)" d="m0 0 4 2 8 7 4 4v2l6 3v2l4 2 9 7 5 4 5 3 7 5 3 1v2l5 2 13 7 1 2-6-1-14-8-18-12-12-9-10-9-14-14z" fill="#080B0D"/>
<path transform="translate(724,1341)" d="m0 0h5v2l-14 7-7 7-8 14-3 10-1 15-3-1-1-2v-7l3-12 5-12 6-9 8-8z" fill="#030609"/>
<path transform="translate(1036,767)" d="m0 0h2l6 17 6 9 9 12 10 11 10 8 14 9 3 2-4 1-11-6-5-4v-2l-4-2-15-14-9-10-7-13-4-10z" fill="#0A0C0E"/>
<path transform="translate(660,1124)" d="m0 0h3l12 20 10 14 11 12 12 12v2h-5l-6-5-3-5-3-3v-2l-3-1-10-13-10-16-8-14z" fill="#0D0F10"/>
<path transform="translate(710,1613)" d="m0 0 1 3-10 19v16l6 18 4 7-1 2-4-5-7-14-3-11v-8l3-12 7-12z" fill="#06090B"/>
<path transform="translate(701,639)" d="m0 0h2l-3 9-7 17-7 22-1 11-3 7h-2v-9l5-21 6-16z" fill="#090C0D"/>
<path transform="translate(1097,707)" d="m0 0 1 3-1 13v14l6 16 4 8 6 7-1 2-7-7-7-11-4-9-2-10v-14l3-11z" fill="#05080B"/>
<path transform="translate(1293,633)" d="m0 0 3 4 12 26 5 15 4 19v3l-4-2-3-17-6-16-3-7-6-16-2-3z" fill="#090C0D"/>
<path transform="translate(862,1339)" d="m0 0h3l-2 5-12 13-9 6-3 1h-7l-8-4-8-7-3-4v-3l4 2 8 8 7 4 6 1 7-4 11-11z" fill="#0A0D0F"/>
<path transform="translate(1060,1200)" d="m0 0h18v2l-17 1-2-1v2l-14 3h-5v2l-9 3-2 4-5 1-3 3-3 5-4 2-2-4 7-7 11-7 19-7z" fill="#02090F"/>
<path transform="translate(949,791)" d="m0 0 1 2-10 14-11 12-12 10-17 10-7 2 1-3 18-10 10-8 10-9 10-12 5-7z" fill="#090C0D"/>
<path transform="translate(640,926)" d="m0 0 1 2-7 15-5 15-3 15-3 18-1 4-4 3 3-21 6-24 6-16 5-10z" fill="#0A0D0F"/>
<path transform="translate(1315,700)" d="m0 0h2l2 8 1 12v14l-2 20-1 5-2-2z" fill="#141516"/>
<path transform="translate(814,608)" d="m0 0h8l3 2-23 7-26 13-11 9-2-1 10-11 22-11 6-2 7-3 4 1v-3z" fill="#0D0F0F"/>
<path transform="translate(1344,695)" d="m0 0h1v17l-1 33-2 12v2h-2v-31l2-27z" fill="#05080A"/>
<path transform="translate(1318,568)" d="m0 0h1v9l-6 22-8 20-7 11-2-1 2-5 6-13 6-14 1-7 3-8 3-13z" fill="#0B0E0F"/>
<path transform="translate(1313,512)" d="m0 0 5 2 4 4 1 7v11l-1 13h-1l-2-28-4-4-6 2-15 10-5 2 3-5 12-9z" fill="#111212"/>
<path transform="translate(669,943)" d="m0 0h2l-1 7-3 10-3 5v7l-3 11-1 3v10l-2 8-2 3v-16l5-26 7-20z" fill="#080B0D"/>
<path transform="translate(944,1077)" d="m0 0 7 2 4 5 3 13-4-2-6-10-4-1-7 9-8 7v-3l6-7 7-12z" fill="#04080B"/>
<path transform="translate(1212,1082)" d="m0 0h2l2 7 1 8 2 2 5 16 2 6v6l-3 1-6-17-5-19z" fill="#01060A"/>
<path transform="translate(729,371)" d="m0 0 3 1-1 2-53 16-4-1 1-2 42-13z" fill="#0B0D0F"/>
<path transform="translate(1036,564)" d="m0 0m-1 1m-2 1h2l-1 3-18 12-16 12h-3l-16-11v-2l5 2 7 5 3 1v2l7-4 9-7 14-9z" fill="#0C0F10"/>
<path transform="translate(851,994)" d="m0 0 4 2 7 12 4 5 2 4 2 2 1 2 4 1 2 2 1 2 6 2 11 4 1 2-9-1-10-4-12-11-8-10-6-12z" fill="#05090C"/>
<path transform="translate(1315,757)" d="m0 0h1v7l-4 16-5 13-10 21-3 3v-4l9-20 4-10 4-12 3-13z" fill="#090C0E"/>
<path transform="translate(697,1404)" d="m0 0 3 1 5 10 8 11 10 6 10 4 9 1v2h-11l-9-3-12-8v-2h-2l-9-14z" fill="#070A0D"/>
<path transform="translate(911,1271)" d="m0 0h1l1 23v15l-2 4-5 3 2-8v-30l1-6z" fill="#080A0C"/>
<path transform="translate(1145,1076)" d="m0 0 7 3 2 1v2l-9 2-14 18-5 3h-3l1-3 5-4 7-9 6-10z" fill="#080A0C"/>
<path transform="translate(1293,1437)" d="m0 0 2 1 1 15-4-2-1-10h-27l-49-1v-1z" fill="#030506"/>
<path transform="translate(842,560)" d="m0 0h14l20 2 9 2-1 2h-7l-1-1h-24l-23-2v-1z" fill="#0E1011"/>
<path transform="translate(1359,1537)" d="m0 0h1l-1 10-4 12-7 13-9 11-11 9v-3l13-13 6-9 5-10 6-18z" fill="#131414"/>
<path transform="translate(1068,996)" d="m0 0 6 2 10 4 4 1h13l9-2h4v2l-8 4-13 2-10-3-10-5z" fill="#06090B"/>
<path transform="translate(1046,861)" d="m0 0 5 2 17 9 9 4 8 4 6 4v2l-9-3-23-11-11-8z" fill="#0E0F10"/>
<path transform="translate(1105,1532)" d="m0 0 4 2 2 3h35l28 2v1h-67l-2-3z" fill="#030506"/>
<path transform="translate(1341,998)" d="m0 0h2l1 3v37l-1 10-2 2-1-6v-20l1-6z" fill="#080B0E"/>
<path transform="translate(1143 1e3)" d="m0 0 1 3-6 9-8 9-8 6-9 4-6 1 2-4 10-4 11-8 9-11 2-4z" fill="#0B0E0F"/>
<path transform="translate(972,799)" d="m0 0h2l-2 5-1 8 6 12 10 14 7 11v3l-8-9-7-11-12-18v-9z" fill="#0F1112"/>
<path transform="translate(949,1118)" d="m0 0 7 6 9 10 7 3 5 4 12 5 1 2-9-1-14-7-7-6-9-11-2-2z" fill="#080B0D"/>
<path transform="translate(1140,969)" d="m0 0 5 1 6 5v10l-2 2-3-8v-2l-5 2-3 1-1 3-1-2 1-2-4 2 2-5 3-5z" fill="#04090D"/>
<path transform="translate(1278,536)" d="m0 0 2 1-5 5-25 12-10 4-3-1 3-3 37-17z" fill="#0C0E0F"/>
<path transform="translate(642,971)" d="m0 0h1v8l-3 18-2 15-1 18h-1l-1-29 5-27z" fill="#080B0D"/>
<path transform="translate(954,1007)" d="m0 0 4 2 1 4h2l2 3v3l4 2 11 6 15 5 2 3-9-1-11-4-9-6-8-9z" fill="#0A0D0E"/>
<path transform="translate(877,1285)" d="m0 0h1l1 19 2 9 4 5 5 2h8l7-3-2 4-4 3-7 1-9-4-6-6-1-9z" fill="#040709"/>
<path transform="translate(1291,1303)" d="m0 0 3 1 1 2v38h-5l1-4z" fill="#04070A"/>
<path transform="translate(1044,1124)" d="m0 0 2 1-8 10-11 7-11 5-10 1 1-3 13-4 10-5 9-7z" fill="#0B0E10"/>
<path transform="translate(971,858)" d="m0 0 4 2 4 4 2 4 14 14 4 2-1 2 5-1-1 4-2 2-4-1-14-17-10-11z" fill="#0C0F10"/>
<path transform="translate(656,1396)" d="m0 0 2 3 8 24 12 19 1 2-4-2-9-12-7-15-3-10z" fill="#06090B"/>
<path transform="translate(943,1012)" d="m0 0 1 2-7 8-11 7-16 5h-3v-2l15-6 15-9z" fill="#070A0C"/>
<path transform="translate(1047 1e3)" d="m0 0 5 2v2l2 1 2 2v3l3 1 3 3v2l5 1 1 2 5 4 6 4-1 2-12-6-10-9-8-10z" fill="#06090B"/>
<path transform="translate(871,1345)" d="m0 0 5 1 3 7 7 5v2l15-1 4-1v3l-6 3h-9l-10-6-7-8z" fill="#010406"/>
<path transform="translate(1120,1272)" d="m0 0 1 2-1 34-2 5-4 2 2-7 1-33z" fill="#050709"/>
<path transform="translate(820,1248)" d="m0 0 1 3-4 10-2 14-1 18-2-1v-32l6-10h2z" fill="#040708"/>
<path transform="translate(1122,677)" d="m0 0 2 1-5 5-6 5h-2l-2 4-7 9-3 6-3 1 1-5 7-12 8-8z" fill="#0C0F10"/>
<path transform="translate(869,609)" d="m0 0 10 1 16 5 16 8 2 4-12-5-15-6-17-6z" fill="#0F1112"/>
<path transform="translate(1400,669)" d="m0 0h2l1 5 1 21v18l-3-2-1-9z" fill="#070A0C"/>
<path transform="translate(867,1128)" d="m0 0 4 1 13 7 6 12-1 2-12-11-8-8-2-1z" fill="#F8F7F5"/>
<path transform="translate(759,1208)" d="m0 0 5 2 16 13 8 7 1 5-4-1-2-5-4-2-14-12-2-1v-2l-4-2z" fill="#02070B"/>
<path transform="translate(1348,425)" d="m0 0h9l-1 2-27 7-11 3h-5l1-2 26-8z" fill="#0A0C0E"/>
<path transform="translate(847,1096)" d="m0 0 5 3-1 2-2-1v2l4 1 3 5 3 3 2 5 2 6-4-1-8-11-4-8z" fill="#01060A"/>
<path transform="translate(1284,444)" d="m0 0m-4 1h4v2l-18 6-16 4h-7l1-2z" fill="#060A0C"/>
<path transform="translate(1264,1601)" d="m0 0h37v2l-2 1h-27l-18-1v-1z" fill="#040608"/>
<path transform="translate(1135,1345)" d="m0 0 5 2 2 3 4 2v2l4 2 2 2 6 2 10 1v2l-3 1h-9l-10-6-10-10z" fill="#0A0D0F"/>
<path transform="translate(1235,1209)" d="m0 0 3 1-3 5-11 7-4 4-6 7-3 2-3-1 8-8 6-7z" fill="#02080D"/>
<path transform="translate(1210,622)" d="m0 0 6 2 11 7 19 19 4 6v2l-3-1-6-8-7-8-11-9-10-6-3-3z" fill="#0A0D0F"/>
<path transform="translate(1085,623)" d="m0 0m-1 1m-2 1h2l-1 3-6 4-11 9-10 11-3 3v-4l9-10 7-6 4-5z" fill="#050809"/>
<path transform="translate(1140,560)" d="m0 0h9l14 2v1l-7 1h-27l-2-2 1-1z" fill="#151515"/>
<path transform="translate(1014,1118)" d="m0 0 3 1-5 3-8 2h-12l-8-3v-2h26z" fill="#010609"/>
<path transform="translate(1056,1111)" d="m0 0 3 2v2l4 2 4 5 13 8 8 3 7 1v1h-10l-16-8-10-9-4-4z" fill="#05080B"/>
<path transform="translate(802,1537)" d="m0 0h26l17 1v2h-43z" fill="#010304"/>
<path transform="translate(904,411)" d="m0 0 2 1-8 10-22 22-1-2 7-8 12-13z" fill="#0D1115"/>
<path transform="translate(951,1234)" d="m0 0 3 1v2l5 2 3 5 2 1 4 7 3 6 1 7-2 3-4-12-7-12-8-7z" fill="#03070A"/>
<path transform="translate(1060,1200)" d="m0 0h18v2l-17 1-2-1v2l-14 3h-7l2-2 13-4z" fill="#02080C"/>
<path transform="translate(922,1260)" d="m0 0h7l7 3v2h-16l-4 5-6 2 2-5 8-6z" fill="#090C0E"/>
<path transform="translate(1405,741)" d="m0 0h1l2 13v13l-3 3h-2l1-28z" fill="#070A0C"/>
<path transform="translate(813,1346)" d="m0 0 4 2 8 8 7 4 6 2 1 2h-7l-8-4-8-7-3-4z" fill="#111313"/>
<path transform="translate(1322,1149)" d="m0 0v3l-11 14-6 8-9 7v-3l7-7 9-11 7-9z" fill="#101314"/>
<path transform="translate(805,705)" d="m0 0h1l2 10 4 5 6 3 10 1-4 4-7-1-9-7-4-4-1-4z" fill="#070A0B"/>
<path transform="translate(1348,771)" d="m0 0 4 1 18 1h15l1 2-5 1h-23l-10-3z" fill="#030607"/>
<path transform="translate(881,1106)" d="m0 0 7 1h25v2l-8 2h-17l-7-3z" fill="#060A0C"/>
<path transform="translate(976,622)" d="m0 0 4 2 8 9 7 11-1 3v-2l-4-2-6-8-7-9z" fill="#05090B"/>
<path transform="translate(1193,495)" d="m0 0h1l1 41-1 5h-10l-4-1v-2h8l3-2 1-2z" fill="#0E0E0E"/>
<path transform="translate(1115,1356)" d="m0 0 2 1-1 3-9 5-5 1-9-4 1-2h12z" fill="#06090B"/>
<path transform="translate(1157,536)" d="m0 0 11 1v1l-43 2h-9l1-2 3-1z" fill="#04080B"/>
<path transform="translate(1404,1705)" d="m0 0h11l9 1h11l3 2-9 1h-20l-10-2v-1z" fill="#01060A"/>
<path transform="translate(1025,1351)" d="m0 0 5 1 6 7 13 2v2l-7 2-10-5-7-7z" fill="#030607"/>
<path transform="translate(1076,546)" d="m0 0m-5 1h5v2l-30 12 2-4 15-7z" fill="#080C0E"/>
<path transform="translate(867,1529)" d="m0 0 4 1v9l-1 1h-23l1-2h16z" fill="#06090A"/>
<path transform="translate(719,446)" d="m0 0 9 2 22 6 3 1v2l-12-2-21-6z" fill="#0D1012"/>
<path transform="translate(1128,1129)" d="m0 0 3 1-9 8-4 5-5 2 2-9z" fill="#F7F5F3"/>
<path transform="translate(1022,862)" d="m0 0v3l-8 10-6 7h-3l1-5h2l2-4h2l2-4 4-2 1-3z" fill="#080B0C"/>
<path transform="translate(871,1022)" d="m0 0h4l2 2 1 2 6 2 11 4 1 2-9-1-10-4-6-5z" fill="#090C0D"/>
<path transform="translate(814,608)" d="m0 0h8l3 2-23 7-3 1 2-4 7-3 4 1v-3z" fill="#010507"/>
<path transform="translate(955,855)" d="m0 0v3l-8 8-11 7-4 2-3-1 9-6 12-9z" fill="#06090C"/>
<path transform="translate(1359,1537)" d="m0 0h1l-1 10-4 12-3 6-2-1 3-10z" fill="#070A0C"/>
<path transform="translate(914,1131)" d="m0 0m-19 1h19l-1 3-7 1h-17l-2-2 5-1z" fill="#06080A"/>
<path transform="translate(1078,575)" d="m0 0h3v2l-14 7-12 8-2-1 4-5z" fill="#0A0D0E"/>
<path transform="translate(917,1228)" d="m0 0h13v1l-19 4-12 5 2-4 10-5z" fill="#06090B"/>
<path transform="translate(647,1092)" d="m0 0 3 1 7 20 2 5-4-2-7-17z" fill="#121415"/>
<path transform="translate(1311,1494)" d="m0 0 4 2 7 8 5 10-1 3h-2l-8-16-5-5z" fill="#02070B"/>
<path transform="translate(841,1201)" d="m0 0h24v1l-20 2-14 3-1-3z" fill="#01060A"/>
<path transform="translate(1030,715)" d="m0 0h1v25l-3-2-1-2v-7l2-8z" fill="#010304"/>
<path transform="translate(939,1355)" d="m0 0 5 2 1 3 16 1-3 3-5 1-8-3-6-5z" fill="#0D1011"/>
<path transform="translate(1226,1128)" d="m0 0 1 3 3 1 3 13v5h-2l-6-16z" fill="#02070C"/>
<path transform="translate(669,943)" d="m0 0h2l-1 7-3 10-3 5-2 2 1-8z" fill="#04090B"/>
<path transform="translate(972,799)" d="m0 0h2l-2 5-1 8 4 10-4-2-4-6v-9z" fill="#04070A"/>
<path transform="translate(957,1099)" d="m0 0h2l6 8 8 6 4 2 1 3-6-2-12-9-3-5z" fill="#070A0C"/>
<path transform="translate(705,1535)" d="m0 0 5 1 9 2-4 3h-9l-3-2v-3z" fill="#040608"/>
<path transform="translate(1240,1166)" d="m0 0 3 1 5 9 1 7h-3l-6-12z" fill="#01070A"/>
<path transform="translate(1146,604)" d="m0 0 12 2 1 2h-24l4-3z" fill="#010609"/>
<path transform="translate(862,329)" d="m0 0 2 1-3 3-16 5-4-1 1-2z" fill="#0A0D0F"/>
<path transform="translate(871,1345)" d="m0 0 5 1 3 7 7 5 1 4-7-4-7-8z" fill="#080B0E"/>
<path transform="translate(1269,1528)" d="m0 0 4 2 1 4-2 5h-5l-1-5z" fill="#080C0E"/>
<path transform="translate(1134,1200)" d="m0 0h13l4 4h-13l-8-1z" fill="#01060A"/>
<path transform="translate(1174,536)" d="m0 0 6 2v2l-38-1v-1l26-1z" fill="#383737"/>
<path transform="translate(1185,1388)" d="m0 0h1l1 12 2 1-5-1-4-5v-3z" fill="#05080A"/>
<path transform="translate(795,616)" d="m0 0h4l-1 3-14 7h-2l2-4 4-3z" fill="#121415"/>
<path transform="translate(685,1488)" d="m0 0h7l-5 5-11 9v-3l6-5-1-3z" fill="#6A6460"/>
<path transform="translate(962,1210)" d="m0 0 6 1 10 7 3 3v2l-5-2-5-3-3-4-6-3z" fill="#01070A"/>
<path transform="translate(1315,757)" d="m0 0h1v7l-3 13-3 1 2-12z" fill="#05090B"/>
<path transform="translate(1135,717)" d="m0 0h2l-2 4-8 7-6-1-1-3 9-2z" fill="#05090B"/>
<path transform="translate(1149,1201)" d="m0 0 10 1 7 2v2h-12l-3-1z" fill="#02080C"/>
<path transform="translate(1099,1389)" d="m0 0h6l-3 4 2 5 1 3-6-2-2-3 1-6z" fill="#05090B"/>
<path transform="translate(1074,1228)" d="m0 0 9 1 11 5 3 3-5-1-10-4-8-2z" fill="#090C0E"/>
<path transform="translate(1219,1114)" d="m0 0 4 2v2h2l1 9-3 1-4-10z" fill="#020B11"/>
<path transform="translate(1219,1103)" d="m0 0 2 4 3 8-1 3-1-2-2 1v-3h-2l-1-3v-7z" fill="#010507"/>
<path transform="translate(759,1162)" d="m0 0h1l-1 7-7 14h-2l1-5z" fill="#02090E"/>
<path transform="translate(1255,670)" d="m0 0 4 5 1 2v6l-6-2-1-2 2-6z" fill="#EFEAE6"/>
<path transform="translate(1330,430)" d="m0 0m-4 1 7 1-4 2-11 3h-5l1-2z" fill="#0A0D10"/>
<path transform="translate(994,288)" d="m0 0h8l11 2v1h-22z" fill="#121517"/>
<path transform="translate(1339,1058)" d="m0 0h1v8l-3 13-2-2 1-10z" fill="#121516"/>
<path transform="translate(640,926)" d="m0 0 1 2-7 15-3 1 3-9 4-8z" fill="#05090B"/>
<path transform="translate(971,858)" d="m0 0 4 2 4 4 2 4 4 4-2 2-11-12z" fill="#0A0D0F"/>
<path transform="translate(1279,1388)" d="m0 0 4 2v7l-3 3h-2z" fill="#010609"/>
<path transform="translate(1220,1221)" d="m0 0 2 1-3 6-8 7-3-1 8-8z" fill="#010406"/>
<path transform="translate(1335,1128)" d="m0 0 1 2-8 13-4 2 2-5 7-11z" fill="#01060A"/>
<path transform="translate(893,424)" d="m0 0v3l-17 17-1-2 6-7 8-7z" fill="#010508"/>
<path transform="translate(697,1155)" d="m0 0 4 2 7 15-1 2-8-13z" fill="#0A0E10"/>
<path transform="translate(1193,534)" d="m0 0h1v7h-10l-4-1v-2h8l3-1z" fill="#05080A"/>
<path transform="translate(1126,1227)" d="m0 0 5 1 1 3-10 3-3-1z" fill="#010508"/>
<path transform="translate(894,540)" d="m0 0 9 1 8 3v2l-19-4z" fill="#060B0E"/>
<path transform="translate(1036,767)" d="m0 0h2l5 15-1 4-5-11z" fill="#060A0C"/>
<path transform="translate(727,699)" d="m0 0h1l-1 13-2 2-1-1v-10z" fill="#0A0D0E"/>
<path transform="translate(1170,608)" d="m0 0h8l9 4v2l-17-4z" fill="#0A0D0E"/>
<path transform="translate(897,1236)" d="m0 0m-2 1h2v3h-2l-1 3-5-1-3-3 5-1z" fill="#0F1112"/>
<path transform="translate(1060,1200)" d="m0 0h18v2l-17 1-2-2z" fill="#020A10"/>
<path transform="translate(795,707)" d="m0 0h1v8l-2 5-2 1v-9l1-4z" fill="#0B0D0E"/>
<path transform="translate(1320,1593)" d="m0 0m-2 1h2v3l-12 5h-2l1-3z" fill="#060A0C"/>
<path transform="translate(891,1388)" d="m0 0h3l1 2v7l-2 3h-2z" fill="#0B0D0E"/>
<path transform="translate(1094,1319)" d="m0 0 5 1h12l-3 3-6 1-7-2z" fill="#060B0F"/>
<path transform="translate(1055,1228)" d="m0 0h6l2 1v2l-11 2-3 1 2-4z" fill="#151616"/>
<path transform="translate(1335,1077)" d="m0 0h1l-1 9-2 4h-2l1-9z" fill="#06090B"/>
<path transform="translate(803,1221)" d="m0 0 1 2-1 3-5 5-5 2v-3l8-7z" fill="#010304"/>
<path transform="translate(1035,1207)" d="m0 0h5v2l-9 3-2 4-4-2 5-5z" fill="#010508"/>
<path transform="translate(1006,797)" d="m0 0h5l4 3v2l4 2v3l-4-2-7-6z" fill="#111416"/>
<path transform="translate(1010,1227)" d="m0 0 1 2-2 5-1 3-4 1v-5l4-5z" fill="#02070B"/>
<path transform="translate(1310,778)" d="m0 0h2l-3 11-2 2-1-5 3-7z" fill="#0C0F11"/>
<path transform="translate(807,611)" d="m0 0 7 1-3 2-12 4 2-4z" fill="#010609"/>
<path transform="translate(646,396)" d="m0 0 3 1-4 3-6 2-4-1 1-2z" fill="#070B0D"/>
<path transform="translate(864,1229)" d="m0 0h10l5 5-6-1-9-3z" fill="#0C0E0F"/>
<path transform="translate(1393,650)" d="m0 0 3 1 5 11v2l-3-1-5-11z" fill="#0C1012"/>
<path transform="translate(813,1211)" d="m0 0 4 1-2 3-6 2-5 3 2-4z" fill="#02080C"/>
<path transform="translate(869,846)" d="m0 0h5v2l-13 3-2-2 4-2z" fill="#010507"/>
<path transform="translate(1210,833)" d="m0 0 2 1-5 4-10 4h-2v-2z" fill="#020B11"/>
<path transform="translate(1344,695)" d="m0 0h1v12l-3 3v-9z" fill="#0D0F11"/>
<path transform="translate(913,625)" d="m0 0 9 5 5 5-1 2-13-10z" fill="#070B0F"/>
<path transform="translate(1198,616)" d="m0 0 9 3 4 5-6-2-9-4z" fill="#232222"/>
<path transform="translate(1286,1638)" d="m0 0 3 1 1 2v6h-2l-1-4-5-1 1-3z" fill="#0D1013"/>
<path transform="translate(1095,1134)" d="m0 0h8l3 2-1 1h-9l-6-1v-1z" fill="#1F2122"/>
<path transform="translate(1214,1096)" d="m0 0 5 3v6l-3 2-2-7z" fill="#020B11"/>
<path transform="translate(960,688)" d="m0 0 3 3 1 3v9l-2-1-2-9z" fill="#070B0D"/>
<path transform="translate(758,362)" d="m0 0h4v2l-12 4-3-1 5-3z" fill="#010609"/>
<path transform="translate(1274,1675)" d="m0 0h20v6l-1-2h-2l-1-2-16-1z" fill="#010304"/>
<path transform="translate(912,1201)" d="m0 0h9l2 2-16 2 1-3z" fill="#02080D"/>
<path transform="translate(739,452)" d="m0 0 8 1 6 2v2l-12-2-2-1z" fill="#070B0E"/>
<path transform="translate(1077,1345)" d="m0 0h3l7 10h-3l-7-8z" fill="#0E1012"/>
<path transform="translate(1110,1236)" d="m0 0m-1 1m-9 1h9l-2 4-5 1-2-2z" fill="#070A0C"/>
<path transform="translate(1307,1168)" d="m0 0v3l-5 5-6 5v-3z" fill="#010609"/>
<path transform="translate(646,959)" d="m0 0 1 4-3 11-2-3 1-7z" fill="#1A1C1D"/>
<path transform="translate(1046,558)" d="m0 0m-2 1h2v3l-11 6 2-4z" fill="#1A1A1A"/>
<path transform="translate(911,1229)" d="m0 0m-1 1m-2 1h2l-1 3-10 4 2-4z" fill="#010508"/>
<path transform="translate(1078,575)" d="m0 0h3v2l-12 6-2-1 3-3z" fill="#010609"/>
<path transform="translate(703,441)" d="m0 0 12 3 1 3-12-3z" fill="#080B0D"/>
<path transform="translate(845,1229)" d="m0 0h6l-4 3-8 3-3-1z" fill="#010609"/>
<path transform="translate(954,1007)" d="m0 0 4 2 1 4h2l2 3v3l-3-1z" fill="#080B0E"/>
<path transform="translate(632,943)" d="m0 0 1 3-3 8-3 1 3-11z" fill="#080B0D"/>
<path transform="translate(1018,1219)" d="m0 0 3 2-5 5h-3l2-4z" fill="#010304"/>
<path transform="translate(1342,1114)" d="m0 0 1 3-5 9h-2l2-6z" fill="#010609"/>
<path transform="translate(1040,1102)" d="m0 0v3l-5 6-5 2 4-6z" fill="#01060A"/>
<path transform="translate(819,692)" d="m0 0h6l3 3h-12z" fill="#010609"/>
<path transform="translate(1294,441)" d="m0 0m-4 1 5 1-3 2-8 2 2-4z" fill="#1D1D1D"/>
<path transform="translate(1245,1637)" d="m0 0h14l-4 3-10-1z" fill="#0B1924"/>
<path transform="translate(941,1230)" d="m0 0 5 1 5 3v2l-9-3-3-2z" fill="#161819"/>
<path transform="translate(666,921)" d="m0 0h5l4 4-1 3-4-3v-2h-5z" fill="#08090A"/>
<path transform="translate(1046,663)" d="m0 0 1 3-4 9-2-2 1-6z" fill="#161819"/>
<path transform="translate(1076,546)" d="m0 0m-5 1h5v2l-10 3 2-4z" fill="#0F1213"/>
<path transform="translate(777,356)" d="m0 0 3 1-1 2-6 2-4-1 1-2z" fill="#080B0D"/>
</svg>
